# xmcd CD database file
#
# Track frame offsets:
#	150
#	20586
#	43649
#	67152
#	84782
#	104355
#	129105
#	146794
#	165919
#	188829
#	207010
#
# Disc length: 2970 seconds
#
# Revision: 0
# Processed by: cddbd v1.5.2PL0 Copyright (c) Steve Scherf et al.
# Submitted via: CDex 1.70beta2
#
DISCID=8c0b980b
DTITLE=Latvian Blues Band - At the Riga City Festival
DYEAR=2017
DGENRE=Blues
TTITLE0=What's Wrong with me
TTITLE1=300 Pounds of Joy
TTITLE2=Take me
TTITLE3=You Got me Dizzy
TTITLE4=World Is Turning
TTITLE5=That's All Right, Mama
TTITLE6=I'd Rather Be Blind Crippled and Crazy
TTITLE7=5 Minutes Too Late
TTITLE8=Are You Ready
TTITLE9=Learning to Live
TTITLE10=Outro
EXTD=YEAR: 2017
EXTT0=
EXTT1=
EXTT2=
EXTT3=
EXTT4=
EXTT5=
EXTT6=
EXTT7=
EXTT8=
EXTT9=
EXTT10=
PLAYORDER=
